<svg xmlns="http://www.w3.org/2000/svg" viewBox="0 0 240 240" role="img" aria-label="FinMMEval project graphic">
  <rect width="240" height="240" fill="#fffaf2"/>
  <circle cx="120" cy="120" r="76" fill="#eaf0e8" stroke="#58705c" stroke-width="5"/>
  <path d="M48 120h144M120 44c25 24 37 50 37 76s-12 52-37 76M120 44c-25 24-37 50-37 76s12 52 37 76" fill="none" stroke="#58705c" stroke-width="5"/>
  <path d="M70 78c26 12 74 12 100 0M70 162c26-12 74-12 100 0" fill="none" stroke="#58705c" stroke-width="5"/>
  <rect x="42" y="168" width="56" height="38" rx="8" fill="#8a1538"/>
  <rect x="142" y="34" width="56" height="38" rx="8" fill="#ad7d2b"/>
  <rect x="152" y="156" width="44" height="52" rx="8" fill="#8a1538" opacity=".85"/>
  <circle cx="70" cy="187" r="10" fill="#fffaf2"/>
  <path d="M156 52h28M164 176h20M164 190h20" stroke="#fffaf2" stroke-width="5" stroke-linecap="round"/>
</svg>
