<svg xmlns="http://www.w3.org/2000/svg" viewBox="0 0 240 240" role="img" aria-label="SAHM project graphic">
  <rect width="240" height="240" fill="#fffaf2"/>
  <path d="M40 50h160v140H40z" fill="#f2dfe6" stroke="#d8c6c0"/>
  <path d="M75 78h58M75 104h90M75 130h74" stroke="#8a1538" stroke-width="8" stroke-linecap="round"/>
  <path d="M178 76c-18 8-29 23-29 43s11 36 29 43c-7 4-15 6-24 6-27 0-49-22-49-49s22-49 49-49c9 0 17 2 24 6z" fill="#58705c"/>
  <path d="M178 105l5 11 12 2-9 8 2 12-10-6-11 6 2-12-9-8 12-2z" fill="#ad7d2b"/>
  <path d="M62 164h116" stroke="#ad7d2b" stroke-width="8" stroke-linecap="round"/>
</svg>
